<svg width="96" height="96" viewBox="0 0 96 96" fill="none" xmlns="http://www.w3.org/2000/svg" role="img" aria-label="Logo de pneu moderno">
  <circle cx="48" cy="48" r="38" fill="#0f172a"/>
  <circle cx="48" cy="48" r="31" fill="#1f2937" stroke="#f97316" stroke-width="4"/>
  <circle cx="48" cy="48" r="18" fill="#e5e7eb"/>
  <circle cx="48" cy="48" r="7" fill="#0f172a"/>
  <path d="M48 20v14" stroke="#f8fafc" stroke-width="5" stroke-linecap="round"/>
  <path d="M48 62v14" stroke="#f8fafc" stroke-width="5" stroke-linecap="round"/>
  <path d="M20 48h14" stroke="#f8fafc" stroke-width="5" stroke-linecap="round"/>
  <path d="M62 48h14" stroke="#f8fafc" stroke-width="5" stroke-linecap="round"/>
  <path d="M28.2 28.2l9.9 9.9" stroke="#f8fafc" stroke-width="5" stroke-linecap="round"/>
  <path d="M57.9 57.9l9.9 9.9" stroke="#f8fafc" stroke-width="5" stroke-linecap="round"/>
  <path d="M67.8 28.2l-9.9 9.9" stroke="#f8fafc" stroke-width="5" stroke-linecap="round"/>
  <path d="M38.1 57.9l-9.9 9.9" stroke="#f8fafc" stroke-width="5" stroke-linecap="round"/>
  <path d="M17 39c4-15 16-26 31-26 15 0 27 11 31 26" stroke="#475569" stroke-width="4" stroke-linecap="round"/>
  <path d="M79 57c-4 15-16 26-31 26-15 0-27-11-31-26" stroke="#475569" stroke-width="4" stroke-linecap="round"/>
</svg>
